<svg width="32" height="32" viewBox="0 0 32 32" fill="none" xmlns="http://www.w3.org/2000/svg">
<path d="M22.6666 7.66667C22.6666 6.7462 23.4128 6.00001 24.3333 6.00001C25.2538 6.00001 26 6.7462 26 7.66667C26 8.58715 25.2538 9.33334 24.3333 9.33334C23.4128 9.33334 22.6666 8.58715 22.6666 7.66667Z" fill="black"/>
<path fill-rule="evenodd" clip-rule="evenodd" d="M16 8.08334C11.6277 8.08334 8.08331 11.6278 8.08331 16C8.08331 20.3723 11.6277 23.9167 16 23.9167C20.3722 23.9167 23.9166 20.3723 23.9166 16C23.9166 11.6278 20.3722 8.08334 16 8.08334ZM10.5833 16C10.5833 13.0085 13.0084 10.5833 16 10.5833C18.9915 10.5833 21.4166 13.0085 21.4166 16C21.4166 18.9915 18.9915 21.4167 16 21.4167C13.0084 21.4167 10.5833 18.9915 10.5833 16Z" fill="black"/>
<path fill-rule="evenodd" clip-rule="evenodd" d="M24.7637 0.721697C18.9861 0.0759626 13.0139 0.0759626 7.23626 0.721697C3.88283 1.09649 1.17561 3.73818 0.781356 7.10906C0.0904595 13.0162 0.0904594 18.9838 0.781356 24.891C1.17561 28.2618 3.88284 30.9035 7.23626 31.2783C13.0139 31.924 18.9861 31.924 24.7637 31.2783C28.1172 30.9035 30.8244 28.2618 31.2186 24.891C31.9095 18.9838 31.9095 13.0162 31.2186 7.10906C30.8244 3.73818 28.1172 1.09649 24.7637 0.721697ZM7.51394 3.20623C13.107 2.58112 18.893 2.58112 24.4861 3.20623C26.7029 3.45399 28.4787 5.20335 28.7356 7.39948C29.4039 13.1137 29.4039 18.8863 28.7356 24.6005C28.4787 26.7967 26.7029 28.546 24.4861 28.7938C18.893 29.4189 13.107 29.4189 7.51395 28.7938C5.2971 28.546 3.52129 26.7967 3.26443 24.6005C2.5961 18.8863 2.5961 13.1137 3.26443 7.39948C3.52129 5.20335 5.2971 3.45399 7.51394 3.20623Z" fill="black"/>
</svg>
