<svg width="36" height="31" viewBox="0 0 36 31" fill="none" xmlns="http://www.w3.org/2000/svg">
<path fill-rule="evenodd" clip-rule="evenodd" d="M23.0357 0.572462C23.883 0.427325 24.8319 0.378865 25.7248 0.529936C27.3196 0.79974 28.7927 1.54095 29.9571 2.65222C30.7183 2.66943 31.4663 2.51948 32.1282 2.30571C32.6884 2.12479 33.1616 1.90634 33.4932 1.73361C33.658 1.64773 33.7854 1.57446 33.8682 1.52486C33.9095 1.5001 33.9396 1.48136 33.9574 1.47004L33.9733 1.45994C34.4679 1.13039 35.1266 1.19453 35.5481 1.61371C35.9697 2.03298 36.0376 2.69118 35.7105 3.18769C35.3643 3.71318 34.8837 4.64996 34.3453 5.69956C34.2606 5.86459 34.1745 6.03241 34.0873 6.20187C33.7785 6.8018 33.4619 7.40816 33.1667 7.92838C32.9814 8.25502 32.7832 8.58665 32.5833 8.87322V9.32952C32.596 11.0056 32.4038 12.6729 32.0136 14.2949C31.7682 15.3155 31.4444 16.3181 31.044 17.2938C30.0066 19.8215 28.4759 22.1173 26.5414 24.0468C24.6069 25.9764 22.3072 27.5012 19.7768 28.5321C17.2486 29.5621 14.5407 30.0784 11.8109 30.051C7.85376 30.0544 3.97982 28.9143 0.655283 26.7678C0.165615 26.4516 -0.0405504 25.839 0.158344 25.2911C0.357238 24.7432 0.908393 24.4055 1.48685 24.4771C1.98745 24.5391 2.49147 24.5693 2.99588 24.5677C4.8083 24.5626 6.5862 24.1621 8.2093 23.4077C7.69339 23.1729 7.20083 22.8833 6.74057 22.542C5.38771 21.5388 4.3812 20.1389 3.86108 18.537C3.72592 18.1208 3.81832 17.6641 4.10468 17.3331C4.10981 17.3272 4.11499 17.3214 4.12021 17.3155C3.81433 17.0428 3.52812 16.7458 3.26462 16.4264C2.07909 14.9894 1.4263 13.187 1.41667 11.3241L1.41663 11.3177L1.41665 11.2343C1.41665 10.7912 1.65124 10.3812 2.03324 10.1567C2.13008 10.0998 2.23272 10.0569 2.3383 10.0282C1.77441 8.90307 1.48117 7.66066 1.48332 6.40023C1.48265 4.97228 1.85564 3.56901 2.56525 2.32983C2.7701 1.97211 3.13815 1.73838 3.54903 1.70509C3.95991 1.67179 4.36079 1.84322 4.62056 2.16329C6.22482 4.13998 8.22696 5.75707 10.4969 6.90952C11.6638 7.50195 12.8881 7.96477 14.1477 8.29216C14.854 8.47571 15.5713 8.61669 16.2959 8.71407C16.264 7.50864 16.5021 6.30386 17.0016 5.19064C17.7344 3.5576 18.9885 2.21397 20.5672 1.37048C21.2358 1.01327 22.1234 0.728748 23.0357 0.572462ZM4.23877 13.1516C4.45485 13.7598 4.7763 14.3303 5.19306 14.8355C6.01193 15.828 7.14851 16.5073 8.41053 16.7584C8.97268 16.8702 9.38674 17.35 9.41512 17.9225C9.44349 18.4949 9.07891 19.0133 8.53058 19.1802C8.07642 19.3184 7.61113 19.4147 7.14053 19.4682C7.4515 19.869 7.8173 20.2281 8.22964 20.5339C9.16496 21.2274 10.2932 21.6122 11.4574 21.6346C11.9856 21.6447 12.4503 21.9859 12.6184 22.4867C12.7864 22.9876 12.6215 23.54 12.2063 23.8667C10.4577 25.2426 8.43567 26.202 6.29309 26.6918C8.0689 27.2605 9.9313 27.5533 11.8151 27.551L11.8296 27.551C14.2297 27.5759 16.6107 27.1224 18.8336 26.2168C21.0564 25.3113 23.0765 23.9718 24.7759 22.2768C26.4753 20.5818 27.8199 18.5651 28.7312 16.3446C29.0829 15.4876 29.3673 14.6068 29.583 13.7103C29.926 12.284 30.0949 10.8179 30.0834 9.34411L30.0833 9.33434V8.451C30.0833 8.14791 30.1934 7.85515 30.3932 7.6272C30.5086 7.49546 30.7106 7.1912 30.9923 6.6947C31.26 6.22282 31.5564 5.65631 31.8645 5.05767C31.8831 5.02147 31.9019 4.98507 31.9206 4.94851C31.1213 5.12209 30.2154 5.21307 29.2657 5.11043C28.9649 5.07793 28.6861 4.93745 28.481 4.71505C27.6429 3.80615 26.5268 3.20114 25.3078 2.99491C24.7669 2.9034 24.113 2.92435 23.4578 3.03657C22.746 3.15851 22.1265 3.37187 21.7454 3.57549C20.6549 4.1581 19.7887 5.08618 19.2825 6.21416C18.7763 7.34213 18.6589 8.60621 18.9485 9.80814C19.0409 10.1913 18.9471 10.5956 18.6954 10.899C18.4438 11.2024 18.0638 11.3693 17.6702 11.3494C16.2645 11.2783 14.8737 11.0639 13.5189 10.7118C12.0857 10.3393 10.6928 9.81271 9.36521 9.13869C7.41058 8.14634 5.63049 6.85118 4.08909 5.30503C4.01877 5.66438 3.98307 6.0311 3.98332 6.40018L3.98331 6.40337C3.98157 7.32124 4.20682 8.22529 4.639 9.03504C5.07119 9.84479 5.69689 10.5351 6.46041 11.0445C6.92378 11.3537 7.12666 11.9322 6.95791 12.463C6.78915 12.9939 6.28949 13.349 5.73265 13.3339C5.22833 13.3202 4.72822 13.2588 4.23877 13.1516Z" fill="black"/>
</svg>
